<svg width="307" height="73" viewBox="0 0 307 73" fill="none" xmlns="http://www.w3.org/2000/svg">
<g filter="url(#filter0_d)">
<path d="M57.6836 23.7314H66.7925C70.9432 23.7314 73.9528 24.3254 75.8213 25.5132C77.7031 26.6877 78.644 28.5628 78.644 31.1387C78.644 32.887 78.2303 34.3218 77.4028 35.4429C76.5887 36.564 75.501 37.238 74.1396 37.4648V37.665C75.9948 38.0788 77.3294 38.8529 78.1436 39.9873C78.971 41.1217 79.3848 42.6299 79.3848 44.5117C79.3848 47.181 78.4172 49.263 76.4819 50.7578C74.5601 52.2526 71.9442 53 68.6343 53H57.6836V23.7314ZM63.8896 35.3228H67.4932C69.1748 35.3228 70.3893 35.0625 71.1367 34.542C71.8975 34.0215 72.2778 33.1606 72.2778 31.9595C72.2778 30.8384 71.8641 30.0376 71.0366 29.5571C70.2225 29.0633 68.9279 28.8164 67.1528 28.8164H63.8896V35.3228ZM63.8896 40.2476V47.875H67.9336C69.6419 47.875 70.9032 47.548 71.7173 46.894C72.5314 46.2401 72.9385 45.2391 72.9385 43.8911C72.9385 41.4621 71.2035 40.2476 67.7334 40.2476H63.8896ZM98.8165 36.7241H100.818C102.78 36.7241 104.228 36.3971 105.163 35.7432C106.097 35.0892 106.564 34.0615 106.564 32.6602C106.564 31.2721 106.084 30.2845 105.123 29.6973C104.175 29.11 102.7 28.8164 100.698 28.8164H98.8165V36.7241ZM98.8165 41.769V53H92.6105V23.7314H101.139C105.116 23.7314 108.059 24.4588 109.967 25.9136C111.876 27.355 112.83 29.5505 112.83 32.5C112.83 34.2217 112.356 35.7565 111.409 37.1045C110.461 38.4391 109.12 39.4868 107.385 40.2476C111.789 46.8273 114.659 51.0781 115.993 53H109.107L102.12 41.769H98.8165ZM144.974 53L142.852 46.0332H132.182L130.06 53H123.373L133.703 23.6113H141.291L151.661 53H144.974ZM141.371 40.8281C139.409 34.5153 138.301 30.9451 138.048 30.1177C137.807 29.2902 137.634 28.6362 137.527 28.1558C137.087 29.8641 135.825 34.0882 133.743 40.8281H141.371ZM162.744 53V23.7314H168.951V53H162.744ZM209.663 53H201.775L189.043 30.8584H188.863C189.116 34.7689 189.243 37.5583 189.243 39.2266V53H183.698V23.7314H191.525L204.238 45.6528H204.378C204.178 41.8491 204.078 39.1598 204.078 37.585V23.7314H209.663V53Z" fill="white"/>
<rect x="24" y="23" width="30" height="4" fill="#FFED48"/>
<rect x="37" y="23" width="5" height="30" fill="#FFED48"/>
<rect x="12" y="23" width="5" height="30" fill="#27CBFF"/>
</g>
<defs>
<filter id="filter0_d" x="0" y="-12" width="319" height="97" filterUnits="userSpaceOnUse" color-interpolation-filters="sRGB">
<feFlood flood-opacity="0" result="BackgroundImageFix"/>
<feColorMatrix in="SourceAlpha" type="matrix" values="0 0 0 0 0 0 0 0 0 0 0 0 0 0 0 0 0 0 127 0"/>
<feOffset/>
<feGaussianBlur stdDeviation="6"/>
<feColorMatrix type="matrix" values="0 0 0 0 0 0 0 0 0 0 0 0 0 0 0 0 0 0 0.25 0"/>
<feBlend mode="normal" in2="BackgroundImageFix" result="effect1_dropShadow"/>
<feBlend mode="normal" in="SourceGraphic" in2="effect1_dropShadow" result="shape"/>
</filter>
</defs>
</svg>
